<svg width="199" height="199" viewBox="0 0 199 199" fill="none" xmlns="http://www.w3.org/2000/svg">
<path fill-rule="evenodd" clip-rule="evenodd" d="M49.788 3.24C46.647 5.033 42.147 8.3 39.788 10.5L35.499 14.5L39.287 14.813C42.083 15.043 44.307 14.37 47.787 12.238C52.912 9.097 59.024 6.691 59.829 7.497C61.055 8.722 56.533 14.318 43.061 28.246C35.12 36.455 26.12 45.096 23.061 47.447C17.612 51.635 6.999 57.591 6.999 56.462C6.999 56.148 8.736 53.327 10.858 50.195C15.528 43.304 18.999 36.629 18.999 34.54C18.999 29.449 10.169 38.155 7.51 45.867C6.632 48.415 5.233 55.675 4.402 62C3.571 68.325 2.241 76.65 1.446 80.5C0.651 84.35 2.06454e-07 88.659 2.06454e-07 90.076C-0.000999794 92.69 3.631 97 5.835 97C6.499 97 7.534 98.08 8.136 99.401C9.017 101.334 8.72 103.33 6.614 109.654C2.597 121.716 2.922 124.19 9.417 131C15.316 137.184 17.532 142.644 16.46 148.356C16.117 150.185 16.335 153.533 16.944 155.795C19.532 165.407 27.638 169.762 40.733 168.575C50.079 167.728 52.461 168.954 53.276 175.029C53.917 179.805 56.708 183.231 62.499 186.347C66.004 188.233 67.894 188.474 77.766 188.289L89.032 188.079L91.266 191.528C96.29 199.289 108.508 200.71 122.341 195.143L130.184 191.986L132.91 194.905C134.85 196.981 137.004 198.028 140.377 198.534C144.573 199.163 145.947 198.836 152.316 195.688C167.112 188.375 188.447 167.598 195.518 153.616C199.861 145.027 199.952 141.475 195.96 136.451C192.506 132.104 192.539 131.31 196.684 119.034C199.902 109.503 199.451 105.349 194.616 99.998C189.68 94.534 189.305 92.11 191.972 82.88C193.605 77.23 194.123 73.29 193.833 68.732C193.31 60.522 190.84 56.98 183.586 54.035C176.553 51.181 175.638 48.902 177.17 38.064C177.779 33.762 177.983 29.07 177.623 27.639C175.805 20.393 162.876 12 153.534 12C147.823 12 144.736 10.239 139.067 3.75C135.944 0.174 135.504 0 129.611 0C125.993 0 121.07 0.829 117.739 2C110.451 4.562 104.274 4.562 100.999 2C98.914 0.369 96.885 0.0409998 88.784 0.0219998C79.401 0.000999836 78.952 0.103 75.652 3C71.421 6.715 70.22 6.766 69.815 3.25C69.507 0.571 69.318 0.493 62.499 0.24C56.182 0.00499977 54.942 0.298 49.788 3.24ZM92.999 9.07C92.999 12.045 87.766 19.281 78.882 28.592C73.424 34.313 70.844 37.861 70.08 40.7C68.695 45.841 56.685 57.526 38.492 71.431C10.75 92.636 2.669 95.238 9.848 80.656C14.673 70.855 25.14 59.8 54.531 33.465C71.975 17.834 78.536 12.661 84.484 9.847C91.655 6.455 92.999 6.332 92.999 9.07ZM131.638 12.502C133.426 17.162 128.927 22.322 107.461 40.227C90.242 54.589 85.781 60 91.161 60C92.35 60 95.311 58.835 97.74 57.412C100.169 55.988 102.421 55.089 102.745 55.413C103.546 56.213 77.423 82.529 67.499 90.918C55.923 100.705 52.217 102.994 48.991 102.348C46.722 101.895 45.047 102.886 38.642 108.472C34.438 112.138 30.999 115.514 30.999 115.975C30.999 117.529 21.677 123 19.028 123C7.315 123 17.202 102.871 32.99 94.574C43.461 89.072 54.411 80.41 70.131 65.197C86.892 48.975 97.99 36.009 101.545 28.495C105.054 21.077 110.988 16.758 122.999 12.882C129.851 10.671 130.918 10.624 131.638 12.502ZM159.453 29.343C161.217 30.632 161.186 30.911 158.681 36.382C145.577 65.007 97.524 115.079 58.269 141.017C45.792 149.26 35.032 154.803 29.894 155.632C26.779 156.136 26.211 155.918 25.717 154.031C24.932 151.028 28.995 137.934 30.935 137.216C31.795 136.897 38.574 133.3 45.999 129.223C77.957 111.671 114.7 77.545 135.228 46.35C145.824 30.248 153.409 24.923 159.453 29.343ZM178.786 69C179.449 77.075 160.87 101.109 132.691 128.629C111.181 149.636 96.373 161.398 82.069 168.838C66.044 177.173 60.109 177.937 62.885 171.306C65.307 165.52 75.545 156.014 95.499 141.022C116.687 125.103 125.588 116.442 152.499 85.565C169.801 65.712 178.088 60.49 178.786 69ZM185.999 109.868C185.999 114.642 173.376 131.495 157.533 147.872C139.52 166.493 121.535 180.188 107.827 185.726C95.334 190.772 98.786 185.122 117.947 169.164C124.301 163.872 140.524 148.563 153.999 135.145C182.01 107.25 185.999 104.1 185.999 109.868ZM187.999 146.329C187.999 151.327 171.183 169.488 155.906 180.988C132.632 198.509 132.125 196.531 154.249 174.517C170.03 158.813 185.428 145 187.152 145C187.618 145 187.999 145.598 187.999 146.329Z" fill="white"/>
</svg>
