<svg width="1824" height="274" viewBox="0 0 1824 274" fill="none" xmlns="http://www.w3.org/2000/svg">
<path fill-rule="evenodd" clip-rule="evenodd" d="M67.3685 7.09037C63.1184 9.51649 57.0294 13.9371 53.8374 16.9139L48.034 22.3264L53.1595 22.7499C56.9428 23.0611 59.9521 22.1504 64.6609 19.2656C71.5956 15.0155 79.8658 11.7599 80.9551 12.8505C82.614 14.5081 76.4952 22.0801 58.2662 40.9262C47.5211 52.0338 35.3432 63.726 31.204 66.9072C23.8309 72.574 9.4704 80.6331 9.4704 79.1054C9.4704 78.6806 11.8207 74.8634 14.692 70.6255C21.011 61.3013 25.7077 52.2693 25.7077 49.4426C25.7077 42.554 13.7597 54.3341 10.1618 64.7693C8.97381 68.217 7.08081 78.0405 5.95638 86.5989C4.83195 95.1573 3.03231 106.422 1.95659 111.631C0.880873 116.841 2.79355e-07 122.671 2.79355e-07 124.589C-0.00135283 128.126 4.91313 133.958 7.89538 133.958C8.79384 133.958 10.1943 135.419 11.0089 137.207C12.201 139.822 11.7991 142.523 8.94945 151.08C3.51402 167.401 3.95378 170.749 12.7422 179.963C20.7242 188.331 23.7227 195.719 22.2721 203.448C21.808 205.923 22.103 210.453 22.927 213.514C26.4289 226.52 37.3972 232.412 55.1161 230.806C67.7623 229.66 70.9854 231.319 72.0881 239.539C72.9555 246.002 76.732 250.637 84.5678 254.854C89.3105 257.406 91.8679 257.732 105.226 257.482L120.47 257.197L123.493 261.864C130.291 272.366 146.823 274.288 165.54 266.756L176.153 262.484L179.841 266.434C182.466 269.243 185.381 270.659 189.945 271.344C195.623 272.195 197.482 271.753 206.1 267.493C226.12 257.598 254.989 229.484 264.557 210.565C270.433 198.943 270.556 194.137 265.155 187.339C260.481 181.457 260.526 180.383 266.135 163.772C270.489 150.876 269.879 145.255 263.336 138.014C256.657 130.621 256.15 127.341 259.759 114.852C261.968 107.207 262.669 101.876 262.277 95.7081C261.569 84.5991 258.227 79.8064 248.412 75.8214C238.895 71.9597 237.657 68.8759 239.73 54.211C240.554 48.3899 240.83 42.0411 240.343 40.1048C237.883 30.3002 220.389 18.9436 207.748 18.9436C200.02 18.9436 195.843 16.5608 188.173 7.78045C183.947 2.94174 183.351 2.7063 175.378 2.7063C170.482 2.7063 163.821 3.82802 159.313 5.41251C149.452 8.87917 141.094 8.87917 136.662 5.41251C133.841 3.2056 131.096 2.76178 120.134 2.73607C107.438 2.70765 106.831 2.84567 102.365 6.76562C96.6403 11.7924 95.0152 11.8614 94.4672 7.1039C94.0504 3.47892 93.7947 3.37338 84.5678 3.03104C76.0203 2.71306 74.3424 3.10952 67.3685 7.09037ZM125.838 14.979C125.838 19.0045 118.757 28.7956 106.736 41.3943C99.3505 49.1355 95.8595 53.9363 94.8258 57.7778C92.9517 64.7341 76.7009 80.5451 52.0838 99.3601C14.5459 128.053 3.61144 131.574 13.3254 111.843C19.8541 98.5807 34.0171 83.6221 73.7863 47.988C97.3899 26.8376 106.268 19.838 114.316 16.0303C124.019 11.4406 125.838 11.2742 125.838 14.979ZM178.12 19.6228C180.54 25.9283 174.452 32.9104 145.406 57.1377C122.107 76.5711 116.071 83.8927 123.351 83.8927C124.959 83.8927 128.966 82.3164 132.253 80.3909C135.539 78.4641 138.587 77.2476 139.025 77.686C140.109 78.7685 104.762 114.377 91.3334 125.728C75.6698 138.971 70.6552 142.068 66.2901 141.194C63.2199 140.581 60.9534 141.922 52.2868 149.481C46.5983 154.441 41.945 159.009 41.945 159.633C41.945 161.736 29.3313 169.138 25.7469 169.138C9.89798 169.138 23.2762 141.902 44.639 130.675C58.8074 123.23 73.6239 111.51 94.8948 90.9248C117.574 68.9747 132.591 51.4303 137.401 41.2631C142.149 31.2257 150.179 25.3817 166.431 20.137C175.702 17.1453 177.146 17.0817 178.12 19.6228ZM215.757 42.4105C218.144 44.1547 218.102 44.5322 214.712 51.935C196.981 90.6677 131.96 158.421 78.8442 193.517C61.9615 204.671 47.4021 212.171 40.4498 213.293C36.2349 213.975 35.4663 213.68 34.7979 211.127C33.7357 207.063 39.2333 189.346 41.8584 188.374C43.022 187.943 52.1948 183.076 62.2416 177.559C105.484 153.809 155.201 107.633 182.978 65.4228C197.316 43.6351 207.579 36.4298 215.757 42.4105ZM241.917 96.0707C242.814 106.997 217.674 139.518 179.545 176.755C150.44 205.18 130.403 221.095 111.048 231.162C89.3646 242.44 81.3339 243.474 85.0901 234.502C88.3674 226.673 102.22 213.81 129.22 193.524C157.89 171.984 169.934 160.265 206.347 118.485C229.759 91.6217 240.972 84.5558 241.917 96.0707ZM251.677 151.369C251.677 157.829 234.596 180.633 213.159 202.793C188.786 227.989 164.45 246.52 145.901 254.013C128.997 260.841 133.668 253.196 159.595 231.603C168.193 224.443 190.144 203.728 208.377 185.572C246.279 147.827 251.677 143.565 251.677 151.369ZM254.383 200.705C254.383 207.468 231.629 232.042 210.958 247.602C179.465 271.31 178.779 268.634 208.715 238.847C230.069 217.597 250.904 198.907 253.237 198.907C253.867 198.907 254.383 199.716 254.383 200.705Z" fill="white"/>
<path d="M1715.42 198.907H1691.7L1744.63 74.1938H1769.49L1823.56 198.907H1798.71L1784.49 164.894H1743.06L1751 144.836H1776.12L1756.49 98.0027L1715.42 198.907Z" fill="white"/>
<path d="M1578.32 74.1938H1603.18L1638.24 134.283L1671.2 74.1938H1695.19L1649.31 155.301V198.907H1626.2V155.301L1578.32 74.1938Z" fill="white"/>
<path d="M1562.97 74.1938V198.907H1539.86V74.1938H1562.97Z" fill="white"/>
<path d="M1426.05 193.674V172.743C1438.55 177.395 1452.68 179.72 1468.43 179.72C1487.56 179.72 1497.13 173.325 1497.13 160.534C1497.13 151.231 1491.25 146.58 1479.51 146.58H1459.97C1434.45 146.58 1421.69 134.951 1421.69 111.695C1421.69 86.1126 1439.86 73.3215 1476.2 73.3215C1490.15 73.3215 1503.38 75.3565 1515.88 79.4264V100.357C1503.38 95.7059 1490.15 93.3803 1476.2 93.3803C1455.27 93.3803 1444.8 99.4851 1444.8 111.695C1444.8 120.997 1449.86 125.649 1459.97 125.649H1479.51C1506.66 125.649 1520.24 137.277 1520.24 160.534C1520.24 186.697 1502.97 199.779 1468.43 199.779C1452.68 199.779 1438.55 197.744 1426.05 193.674Z" fill="white"/>
<path d="M1304.83 198.907H1281.1L1334.04 74.1938H1358.9L1412.97 198.907H1388.11L1373.9 164.894H1332.47L1340.41 144.836H1365.52L1345.9 98.0027L1304.83 198.907Z" fill="white"/>
<path d="M1278.84 74.1938V94.2526H1243.08V198.907H1219.97V94.2526H1184.21V74.1938H1278.84Z" fill="white"/>
<path d="M1073.89 198.907H1050.17L1103.1 74.1936H1127.96L1182.03 198.907H1157.18L1142.96 164.894H1101.53L1109.47 144.835H1134.59L1114.96 98.0025L1073.89 198.907Z" fill="white"/>
<path d="M947.256 193.674V172.743C959.756 177.395 973.885 179.72 989.641 179.72C1008.77 179.72 1018.33 173.325 1018.33 160.534C1018.33 151.231 1012.46 146.58 1000.72 146.58H981.182C955.658 146.58 942.896 134.951 942.896 111.695C942.896 86.1126 961.065 73.3215 997.403 73.3215C1011.36 73.3215 1024.58 75.3565 1037.08 79.4264V100.357C1024.58 95.7059 1011.36 93.3803 997.403 93.3803C976.472 93.3803 966.007 99.4851 966.007 111.695C966.007 120.997 971.065 125.649 981.182 125.649H1000.72C1027.87 125.649 1041.45 137.277 1041.45 160.534C1041.45 186.697 1024.18 199.779 989.641 199.779C973.885 199.779 959.756 197.744 947.256 193.674Z" fill="white"/>
<path d="M776.233 198.907V74.1936H799.345V125.649H860.829V74.1936H883.94V198.907H860.829V145.707H799.345V198.907H776.233Z" fill="white"/>
<path d="M662.421 193.674V172.743C674.922 177.395 689.05 179.72 704.806 179.72C723.935 179.72 733.499 173.325 733.499 160.534C733.499 151.231 727.627 146.58 715.882 146.58H696.347C670.823 146.58 658.061 134.951 658.061 111.695C658.061 86.1126 676.23 73.3215 712.568 73.3215C726.522 73.3215 739.749 75.3565 752.249 79.4264V100.357C739.749 95.7059 726.522 93.3803 712.568 93.3803C691.637 93.3803 681.172 99.4851 681.172 111.695C681.172 120.997 686.23 125.649 696.347 125.649H715.882C743.034 125.649 756.61 137.277 756.61 160.534C756.61 186.697 739.342 199.779 704.806 199.779C689.05 199.779 674.922 197.744 662.421 193.674Z" fill="white"/>
<path d="M638.351 74.1936V198.907H615.24V74.1936H638.351Z" fill="white"/>
<path d="M499.597 198.732V74.1936H556.284C581.75 74.1936 594.483 85.3277 594.483 107.596C594.483 122.654 584.57 135.126 564.744 145.01L604.251 198.907H575.122L537.185 144.574V134.021C559.279 130.242 570.326 121.666 570.326 108.293C570.326 99.1072 565.151 94.514 554.802 94.514H523.144V198.732H499.597Z" fill="white"/>
<path d="M397.472 74.1936V198.907H374.36V74.1936H397.472ZM485.207 74.1936L432.007 132.364L490.788 198.907H458.782L410.553 140.649V125.649L456.95 74.1936H485.207Z" fill="white"/>
<path d="M404.579 7.44209C404.579 3.33194 407.911 0 412.021 0H1769.19C1773.3 0 1776.63 3.33194 1776.63 7.44209C1776.63 11.5522 1773.3 14.8842 1769.19 14.8842H412.021C407.911 14.8842 404.579 11.5522 404.579 7.44209Z" fill="white"/>
<path d="M404.579 265.885C404.579 261.775 407.911 258.443 412.021 258.443H1769.19C1773.3 258.443 1776.63 261.775 1776.63 265.885C1776.63 269.996 1773.3 273.328 1769.19 273.328H412.021C407.911 273.328 404.579 269.996 404.579 265.885Z" fill="white"/>
</svg>
