<svg width="642" height="137" viewBox="0 0 642 137" fill="none" xmlns="http://www.w3.org/2000/svg">
<path d="M68.4998 0C106.332 0 137 30.6675 137 68.5V116.45C137 121.9 134.835 127.127 130.981 130.981C127.127 134.835 121.9 137 116.45 137H71.9248V106.949C71.9248 100.092 72.3427 92.9887 75.9389 87.1525C78.5136 82.97 81.9578 79.3902 86.0377 76.6559C90.1176 73.9216 94.7379 72.0967 99.5851 71.3051L100.897 71.0927C101.438 70.9079 101.907 70.5585 102.24 70.0936C102.572 69.6287 102.751 69.0715 102.751 68.5C102.751 67.9285 102.572 67.3713 102.24 66.9064C101.907 66.4414 101.438 66.0921 100.897 65.9073L99.5851 65.6949C92.5028 64.538 85.9628 61.1857 80.8885 56.1114C75.8141 51.037 72.4618 44.497 71.3049 37.4147L71.0926 36.1029C70.9077 35.5621 70.5584 35.0927 70.0935 34.7603C69.6286 34.4278 69.0713 34.2491 68.4998 34.2491C67.9283 34.2491 67.3711 34.4278 66.9062 34.7603C66.4413 35.0927 66.0919 35.5621 65.9071 36.1029L65.6948 37.4147C64.9033 42.262 63.0786 46.8824 60.3442 50.9623C57.6099 55.0423 54.0299 58.4864 49.8473 61.0609C44.0111 64.6571 36.9076 65.075 30.0508 65.075H0.0820312C1.87331 28.8351 31.8181 0 68.4998 0Z" fill="white"/>
<path d="M0 71.925H30.0509C36.9078 71.925 44.0112 72.3429 49.8474 75.9391C54.4094 78.7502 58.2498 82.5905 61.0609 87.1525C64.6571 92.9887 65.075 100.092 65.075 106.949V137H20.55C15.0998 137 9.87283 134.835 6.01896 130.981C2.16508 127.127 0 121.9 0 116.45L0 71.925ZM137 6.85C137 8.66673 136.278 10.4091 134.994 11.6937C133.709 12.9783 131.967 13.7 130.15 13.7C128.333 13.7 126.591 12.9783 125.306 11.6937C124.022 10.4091 123.3 8.66673 123.3 6.85C123.3 5.03327 124.022 3.29094 125.306 2.00632C126.591 0.721694 128.333 0 130.15 0C131.967 0 133.709 0.721694 134.994 2.00632C136.278 3.29094 137 5.03327 137 6.85Z" fill="white"/>
<path d="M615.143 111.208C610.215 111.208 605.759 110.094 601.776 107.867C597.861 105.571 594.722 102.5 592.359 98.652C590.064 94.7366 588.916 90.3823 588.916 85.5893C588.916 80.7963 590.064 76.5096 592.359 72.7292C594.654 68.8813 597.793 65.8435 601.776 63.6157C605.759 61.3205 610.181 60.1729 615.041 60.1729C620.037 60.1729 624.492 61.3205 628.408 63.6157C632.391 65.8435 635.53 68.8813 637.825 72.7292C640.12 76.5096 641.268 80.7963 641.268 85.5893C641.268 90.3823 640.12 94.7366 637.825 98.652C635.53 102.5 632.391 105.571 628.408 107.867C624.492 110.094 620.071 111.208 615.143 111.208ZM615.041 98.8545C617.539 98.8545 619.733 98.3145 621.623 97.2343C623.581 96.0867 625.066 94.534 626.079 92.5763C627.159 90.5511 627.699 88.2559 627.699 85.6906C627.699 83.1253 627.159 80.8638 626.079 78.9061C624.999 76.9484 623.513 75.4295 621.623 74.3494C619.733 73.2018 617.539 72.6279 615.041 72.6279C612.611 72.6279 610.451 73.2018 608.561 74.3494C606.67 75.4295 605.185 76.9484 604.105 78.9061C603.025 80.8638 602.485 83.1253 602.485 85.6906C602.485 88.2559 603.025 90.5511 604.105 92.5763C605.185 94.534 606.67 96.0867 608.561 97.2343C610.451 98.3145 612.611 98.8545 615.041 98.8545Z" fill="white"/>
<path d="M561.175 110.196V40.9336H574.44V110.196H561.175ZM549.732 72.932V61.287H585.883V72.932H549.732Z" fill="white"/>
<path d="M522.775 111.209C519.264 111.209 516.091 110.5 513.256 109.083C510.421 107.597 508.159 105.606 506.472 103.108C504.784 100.61 503.873 97.7414 503.738 94.5011V77.1855C503.873 73.9451 504.784 71.0761 506.472 68.5783C508.227 66.013 510.488 63.9878 513.256 62.5026C516.091 61.0175 519.264 60.2749 522.775 60.2749C527.298 60.2749 531.348 61.3888 534.926 63.6165C538.504 65.8443 541.305 68.8821 543.331 72.73C545.423 76.5779 546.47 80.9321 546.47 85.7926C546.47 90.5857 545.423 94.9061 543.331 98.754C541.305 102.602 538.504 105.64 534.926 107.868C531.348 110.095 527.298 111.209 522.775 111.209ZM495.637 130.651V61.2875H508.902V74.1476L506.674 85.9952L508.801 97.8427V130.651H495.637ZM520.446 98.9566C522.876 98.9566 525.036 98.4165 526.926 97.3364C528.817 96.1888 530.268 94.6361 531.281 92.6784C532.361 90.6532 532.901 88.3242 532.901 85.6914C532.901 83.1261 532.361 80.8646 531.281 78.9069C530.268 76.8817 528.817 75.329 526.926 74.2489C525.036 73.1013 522.876 72.5275 520.446 72.5275C518.083 72.5275 515.956 73.1013 514.066 74.2489C512.176 75.329 510.691 76.8817 509.611 78.9069C508.598 80.8646 508.092 83.1261 508.092 85.6914C508.092 88.3242 508.598 90.6532 509.611 92.6784C510.691 94.6361 512.142 96.1888 513.965 97.3364C515.855 98.4165 518.015 98.9566 520.446 98.9566Z" fill="white"/>
<path d="M470.513 110.196V61.2872H483.88V110.196H470.513ZM477.196 53.3888C475.036 53.3888 473.247 52.68 471.83 51.2624C470.412 49.7772 469.703 47.9545 469.703 45.7943C469.703 43.7015 470.412 41.9126 471.83 40.4274C473.247 38.9423 475.036 38.1997 477.196 38.1997C479.424 38.1997 481.213 38.9423 482.563 40.4274C483.981 41.9126 484.69 43.7015 484.69 45.7943C484.69 47.9545 483.981 49.7772 482.563 51.2624C481.213 52.68 479.424 53.3888 477.196 53.3888Z" fill="white"/>
<path d="M428.393 110.197V61.2875H441.658V110.197H428.393ZM441.658 83.1599L436.493 79.717C437.101 73.7088 438.856 68.9833 441.759 65.5405C444.662 62.0301 448.847 60.2749 454.315 60.2749C456.678 60.2749 458.805 60.6799 460.695 61.49C462.585 62.2326 464.306 63.4815 465.859 65.2367L457.556 74.7552C456.813 73.9451 455.902 73.3376 454.822 72.9325C453.809 72.5275 452.628 72.3249 451.278 72.3249C448.442 72.3249 446.113 73.2363 444.291 75.059C442.535 76.8142 441.658 79.5145 441.658 83.1599Z" fill="white"/>
<path d="M401.646 111.208C396.651 111.208 392.161 110.094 388.178 107.867C384.196 105.639 381.056 102.601 378.761 98.7532C376.466 94.9053 375.318 90.5849 375.318 85.7919C375.318 80.9313 376.466 76.5771 378.761 72.7292C381.056 68.8813 384.196 65.8435 388.178 63.6157C392.229 61.3205 396.718 60.1729 401.646 60.1729C405.494 60.1729 409.038 60.8817 412.279 62.2993C415.519 63.717 418.32 65.7422 420.683 68.375L412.177 76.9822C410.895 75.5645 409.342 74.4844 407.519 73.7418C405.764 72.9992 403.806 72.6279 401.646 72.6279C399.216 72.6279 397.022 73.2018 395.064 74.3494C393.174 75.4295 391.655 76.9484 390.507 78.9061C389.427 80.7963 388.887 83.0578 388.887 85.6906C388.887 88.2559 389.427 90.5511 390.507 92.5763C391.655 94.534 393.174 96.0867 395.064 97.2343C397.022 98.3145 399.216 98.8545 401.646 98.8545C403.874 98.8545 405.865 98.4832 407.621 97.7406C409.443 96.9306 410.996 95.7829 412.279 94.2978L420.886 102.905C418.388 105.605 415.519 107.664 412.279 109.082C409.038 110.5 405.494 111.208 401.646 111.208Z" fill="white"/>
<path d="M350.374 111.309C347.606 111.309 344.872 110.938 342.172 110.195C339.539 109.453 337.109 108.44 334.881 107.158C332.654 105.807 330.73 104.187 329.109 102.297L337.008 94.2975C338.695 96.1877 340.653 97.6053 342.881 98.5504C345.109 99.4955 347.573 99.9681 350.273 99.9681C352.433 99.9681 354.053 99.6643 355.133 99.0567C356.281 98.4492 356.855 97.5378 356.855 96.3227C356.855 94.9725 356.247 93.9262 355.032 93.1836C353.885 92.441 352.366 91.8335 350.475 91.3609C348.585 90.8208 346.594 90.247 344.501 89.6395C342.476 88.9644 340.518 88.1206 338.628 87.1079C336.738 86.0278 335.185 84.5764 333.97 82.7537C332.822 80.8635 332.248 78.4333 332.248 75.4629C332.248 72.3576 332.991 69.6573 334.476 67.3621C336.029 65.0668 338.223 63.2779 341.058 61.9953C343.893 60.7126 347.235 60.0713 351.083 60.0713C355.133 60.0713 358.779 60.7801 362.019 62.1978C365.327 63.6154 368.061 65.7419 370.221 68.5772L362.222 76.5768C360.737 74.7541 359.049 73.4377 357.159 72.6276C355.336 71.8176 353.344 71.4125 351.184 71.4125C349.227 71.4125 347.708 71.7163 346.628 72.3239C345.615 72.9314 345.109 73.7753 345.109 74.8554C345.109 76.0705 345.682 77.0156 346.83 77.6907C348.045 78.3658 349.598 78.9733 351.488 79.5134C353.378 79.9859 355.336 80.5597 357.361 81.2348C359.454 81.8424 361.412 82.72 363.234 83.8676C365.124 85.0152 366.643 86.5341 367.791 88.4243C369.006 90.3145 369.614 92.7448 369.614 95.7151C369.614 100.508 367.892 104.322 364.449 107.158C361.007 109.925 356.315 111.309 350.374 111.309Z" fill="white"/>
<path d="M302.167 111.208C297.036 111.208 292.479 110.128 288.497 107.968C284.514 105.74 281.341 102.702 278.978 98.8545C276.683 95.0066 275.535 90.6186 275.535 85.6906C275.535 80.8301 276.649 76.5096 278.877 72.7292C281.172 68.8813 284.277 65.8435 288.193 63.6157C292.108 61.3205 296.462 60.1729 301.255 60.1729C305.981 60.1729 310.133 61.253 313.711 63.4132C317.356 65.5059 320.191 68.4087 322.216 72.1216C324.309 75.767 325.356 79.9187 325.356 84.5767C325.356 85.4543 325.288 86.3657 325.153 87.3108C325.085 88.1884 324.917 89.201 324.647 90.3486L283.535 90.4499V80.5263L318.47 80.425L313.103 84.5767C312.968 81.6739 312.428 79.2437 311.483 77.2859C310.605 75.3282 309.289 73.8431 307.534 72.8305C305.846 71.7503 303.753 71.2103 301.255 71.2103C298.623 71.2103 296.327 71.8179 294.37 73.033C292.412 74.1806 290.893 75.8345 289.813 77.9948C288.8 80.0875 288.294 82.5853 288.294 85.4881C288.294 88.4584 288.834 91.0574 289.914 93.2852C291.062 95.4454 292.682 97.1331 294.775 98.3482C296.867 99.4958 299.298 100.07 302.066 100.07C304.563 100.07 306.825 99.6646 308.85 98.8545C310.875 97.9769 312.63 96.6943 314.116 95.0066L321.913 102.804C319.55 105.571 316.647 107.664 313.204 109.082C309.829 110.5 306.15 111.208 302.167 111.208Z" fill="white"/>
<path d="M238.04 110.197V61.2875H251.305V110.197H238.04ZM251.305 83.1599L246.141 79.717C246.748 73.7088 248.504 68.9833 251.406 65.5405C254.309 62.0301 258.495 60.2749 263.963 60.2749C266.326 60.2749 268.452 60.6799 270.342 61.49C272.232 62.2326 273.954 63.4815 275.507 65.2367L267.203 74.7552C266.461 73.9451 265.549 73.3376 264.469 72.9325C263.457 72.5275 262.275 72.3249 260.925 72.3249C258.09 72.3249 255.761 73.2363 253.938 75.059C252.183 76.8142 251.305 79.5145 251.305 83.1599Z" fill="white"/>
<path d="M187.181 83.7671V72.5271H203.686C205.847 72.5271 207.804 72.0883 209.559 71.2107C211.315 70.3331 212.699 69.0842 213.711 67.4641C214.724 65.7764 215.23 63.7512 215.23 61.3884C215.23 59.0932 214.724 57.1017 213.711 55.414C212.699 53.7263 211.315 52.4437 209.559 51.5661C207.804 50.6885 205.847 50.2497 203.686 50.2497H187.181V39.0098H205.104C209.627 39.0098 213.677 39.9211 217.255 41.7438C220.901 43.5665 223.77 46.1655 225.862 49.5409C227.955 52.8488 229.002 56.7979 229.002 61.3884C229.002 65.9789 227.955 69.9618 225.862 73.3372C223.77 76.6451 220.901 79.2103 217.255 81.033C213.677 82.8557 209.627 83.7671 205.104 83.7671H187.181ZM177.055 110.196V39.0098H190.826V110.196H177.055Z" fill="white"/>
</svg>
